<?xml version="1.0" encoding="UTF-8" standalone="no"?>
<svg
   xmlns:dc="http://purl.org/dc/elements/1.1/"
   xmlns:cc="http://creativecommons.org/ns#"
   xmlns:rdf="http://www.w3.org/1999/02/22-rdf-syntax-ns#"
   xmlns:svg="http://www.w3.org/2000/svg"
   xmlns="http://www.w3.org/2000/svg"
   viewBox="0 0 1496 1496"
   height="1496"
   width="1496"
   xml:space="preserve"
   id="svg2"
   version="1.1"><metadata
     id="metadata8"><rdf:RDF><cc:Work
         rdf:about=""><dc:format>image/svg+xml</dc:format><dc:type
           rdf:resource="http://purl.org/dc/dcmitype/StillImage" /></cc:Work></rdf:RDF></metadata><defs
     id="defs6" /><g
     transform="matrix(1.3333333,0,0,-1.3333333,0,1496)"
     id="g10"><g
       transform="scale(0.1)"
       id="g12"><path
         id="path14"
         style="fill:#ffffff;fill-opacity:1;fill-rule:nonzero;stroke:none"
         d="M 11220,0 H 0 V 11220 H 11220 V 0" /><path
         id="path16"
         style="fill:#f3cc30;fill-opacity:1;fill-rule:nonzero;stroke:none"
         d="m 5704.97,8694.64 937.71,-1900 c 15.43,-31.26 45.25,-52.93 79.74,-57.94 L 8819.2,6432.02 c 86.87,-12.63 121.56,-119.38 58.7,-180.65 L 7360.66,4772.42 c -24.97,-24.33 -36.36,-59.38 -30.46,-93.74 l 358.17,-2088.31 c 14.84,-86.51 -75.97,-152.5 -153.67,-111.65 l -1875.42,985.97 c -30.85,16.22 -67.71,16.22 -98.56,0 L 3685.3,2478.72 c -77.7,-40.85 -168.51,25.14 -153.67,111.65 l 358.17,2088.31 c 5.89,34.36 -5.5,69.41 -30.46,93.74 L 2342.1,6251.37 c -62.86,61.27 -28.17,168.02 58.7,180.65 l 2096.77,304.68 c 34.5,5.01 64.32,26.68 79.75,57.94 l 937.71,1900 c 38.84,78.72 151.09,78.72 189.94,0" /><path
         id="path18"
         style="fill:#f7db5e;fill-opacity:1;fill-rule:nonzero;stroke:none"
         d="M 5610,8255.77 4774.37,6637.2 c -43.84,-84.91 -127.97,-141.56 -223.12,-150.24 L 2736.92,6321.34 4653.8,6231.7 c 121.75,-5.69 233.17,68.1 275.43,182.42 L 5610,8255.77" /><path
         id="path20"
         style="fill:#edbd31;fill-opacity:1;fill-rule:nonzero;stroke:none"
         d="m 3572.84,2830.67 -41.21,-240.3 c -14.84,-86.51 75.97,-152.5 153.67,-111.65 l 1875.42,985.97 c 30.85,16.22 67.71,16.22 98.56,0 L 7534.7,2478.72 c 77.7,-40.85 168.51,25.14 153.67,111.65 L 7330.2,4678.68 c -5.89,34.36 5.5,69.41 30.45,93.74 L 8877.9,6251.37 c 62.86,61.27 28.17,168.02 -58.7,180.65 l -702.31,102.05 C 6980.99,4495.54 5241.63,3422.26 3572.84,2830.67" /></g></g></svg>